<?xml version="1.0" encoding="UTF-8" standalone="no"?>
<svg width="101px" height="88px" viewBox="0 0 101 88" version="1.1" xmlns="http://www.w3.org/2000/svg" xmlns:xlink="http://www.w3.org/1999/xlink">
    <!-- Generator: Sketch 39.1 (31720) - http://www.bohemiancoding.com/sketch -->
    <title>vaadin-charts-logo</title>
    <desc>Created with Sketch.</desc>
    <defs>
        <polygon id="path-1" points="12 0.013 7.10542736e-15 0.013 0 12.0127 12 12.0127 12 0.013"></polygon>
    </defs>
    <g id="Symbols" stroke="none" stroke-width="1" fill="none" fill-rule="evenodd">
        <g id="vaadin-charts-logo">
            <g id="charts-logo">
                <path d="M36.3877,82.5108 L36.3877,7.5238" id="Stroke-1" stroke="#FFFFFF" stroke-width="2"></path>
                <g id="Group-25" transform="translate(0.000000, 0.987300)">
                    <path d="M42,81 C42,77.687 39.313,75 36,75 C32.686,75 30,77.687 30,81 C30,84.314 32.686,87 36,87 C39.313,87 42,84.314 42,81" id="Fill-2" fill="#00B4F0"></path>
                    <g id="Group-6" transform="translate(30.000000, 0.000000)">
                        <mask id="mask-2" fill="white">
                            <use xlink:href="#path-1"></use>
                        </mask>
                        <g id="Clip-5"></g>
                        <path d="M12,6.0127 C12,2.6987 9.313,0.0127 6,0.0127 C2.686,0.0127 0,2.6987 0,6.0127 C0,9.3257 2.686,12.0127 6,12.0127 C9.313,12.0127 12,9.3257 12,6.0127" id="Fill-4" fill="#FF3B4A" mask="url(#mask-2)"></path>
                    </g>
                    <path d="M6.3877,81.5235 L6.3877,42.4565" id="Stroke-7" stroke="#FFFFFF" stroke-width="2"></path>
                    <path d="M12,81 C12,77.687 9.313,75 6,75 C2.686,75 0,77.687 0,81 C0,84.314 2.686,87 6,87 C9.313,87 12,84.314 12,81" id="Fill-9" fill="#00B4F0"></path>
                    <path d="M12,41.9331 C12,38.6201 9.313,35.9331 6,35.9331 C2.686,35.9331 0,38.6201 0,41.9331 C0,45.2471 2.686,47.9331 6,47.9331 C9.313,47.9331 12,45.2471 12,41.9331" id="Fill-11" fill="#FF3B4A"></path>
                    <path d="M65.3877,81.5235 L65.3877,34.7925" id="Stroke-13" stroke="#FFFFFF" stroke-width="2"></path>
                    <path d="M71,81 C71,77.687 68.313,75 65,75 C61.686,75 59,77.687 59,81 C59,84.314 61.686,87 65,87 C68.313,87 71,84.314 71,81" id="Fill-15" fill="#00B4F0"></path>
                    <path d="M71,34.2691 C71,30.9551 68.313,28.2691 65,28.2691 C61.686,28.2691 59,30.9551 59,34.2691 C59,37.5821 61.686,40.2691 65,40.2691 C68.313,40.2691 71,37.5821 71,34.2691" id="Fill-17" fill="#FF3B4A"></path>
                    <path d="M95.3877,81.5235 L95.3877,55.0775" id="Stroke-19" stroke="#FFFFFF" stroke-width="2"></path>
                    <path d="M101,81 C101,77.687 98.313,75 95,75 C91.686,75 89,77.687 89,81 C89,84.314 91.686,87 95,87 C98.313,87 101,84.314 101,81" id="Fill-21" fill="#00B4F0"></path>
                    <path d="M101,54.5542 C101,51.2412 98.313,48.5542 95,48.5542 C91.686,48.5542 89,51.2412 89,54.5542 C89,57.8682 91.686,60.5542 95,60.5542 C98.313,60.5542 101,57.8682 101,54.5542" id="Fill-23" fill="#FF3B4A"></path>
                </g>
            </g>
        </g>
    </g>
</svg>