<svg xmlns:xlink="http://www.w3.org/1999/xlink" version="1.1" class="highcharts-root" style="font-family: var(--lumo-font-family); font-size: 14px;" xmlns="http://www.w3.org/2000/svg" width="600" height="400" viewBox="0 0 600 400" aria-hidden="false" aria-label="Interactive chart"><desc aria-hidden="true">Created with Highcharts 12.2.0</desc><defs aria-hidden="true"><filter id="highcharts-drop-shadow-12"><feDropShadow dx="1" dy="1" flood-color="#000000" flood-opacity="0.75" stdDeviation="2.5"></feDropShadow></filter><clipPath id="highcharts-hf5g51x-49-"><rect x="10" y="56" width="580" height="243" fill="none"></rect></clipPath></defs><rect fill="#282828" class="highcharts-background" filter="none" x="0" y="0" width="600" height="400" rx="0" ry="0" aria-hidden="true"></rect><rect fill="rgba(255,255,255,0.00)" class="highcharts-plot-background" x="10" y="56" width="580" height="243" filter="none" aria-hidden="true"></rect><g class="highcharts-pane-group" data-z-index="0" aria-hidden="true"></g><rect fill="none" class="highcharts-plot-border" data-z-index="1" stroke="rgba(255,255,255,0.00)" stroke-width="0" x="10" y="56" width="580" height="243" aria-hidden="true"></rect><g class="highcharts-series-group" data-z-index="3" filter="none" aria-hidden="false"><g class="highcharts-series highcharts-series-0 highcharts-pie-series highcharts-tracker" data-z-index="0.1" opacity="1" transform="translate(10,56) scale(1 1)" filter="none" style="cursor: pointer;" clip-path="none" aria-hidden="false"><path fill="#3090F0" d="M 289.981272030186 46.04892796022905 A 3 3 0 0 1 293.0784873582215 43.04989249302943 A 95 95 0 1 1 243.2431576769823 220.69702350133565 A 3 3 0 0 1 242.15774116583407 216.52463479472334 L 290 138 A 0 0 0 0 1 290 138 A 0 0 0 1 0 290 138 A 0 0 0 0 1 290 138 Z" transform="translate(10,3)" stroke="#ffffff" stroke-width="0" opacity="1" stroke-linejoin="round" class="highcharts-point highcharts-point-select highcharts-color-0" tabindex="-1" style="outline: none;" role="img" aria-label="Chrome, 61.4."></path><path fill="#EC6464" d="M 242.15774116583407 216.52463479472334 A 3 3 0 0 1 237.9521773394142 217.47341792254946 A 95 95 0 0 1 200.60448876539152 170.1472016060961 A 3 3 0 0 1 202.50492487130148 166.27740844248996 L 290 138 A 0 0 0 0 1 290 138 A 0 0 0 0 0 290 138 A 0 0 0 0 1 290 138 Z" transform="translate(0,0)" stroke="#ffffff" stroke-width="0" opacity="1" stroke-linejoin="round" class="highcharts-point highcharts-color-1" tabindex="-1" style="outline: none;" role="img" aria-label="Internet Explorer, 11.8."></path><path fill="#98DF58" d="M 202.50492487130148 166.27740844248996 A 3 3 0 0 1 198.6991604253398 164.25179409035053 A 95 95 0 0 1 199.43583181684693 109.30973263816517 A 3 3 0 0 1 203.2945378373775 107.3868846543505 L 290 138 A 0 0 0 0 1 290 138 A 0 0 0 0 0 290 138 A 0 0 0 0 1 290 138 Z" transform="translate(0,0)" stroke="#ffffff" stroke-width="0" opacity="1" stroke-linejoin="round" class="highcharts-point highcharts-color-2" tabindex="-1" style="outline: none;" role="img" aria-label="Firefox, 10.9."></path><path fill="#F9DD51" d="M 203.2945378373775 107.3868846543505 A 3 3 0 0 1 201.49853980382403 103.46752914799345 A 95 95 0 0 1 210.9441714981211 85.32006093510063 A 3 3 0 0 1 215.18477127391856 84.54271283852762 L 290 138 A 0 0 0 0 1 290 138 A 0 0 0 0 0 290 138 A 0 0 0 0 1 290 138 Z" transform="translate(0,0)" stroke="#ffffff" stroke-width="0" opacity="1" stroke-linejoin="round" class="highcharts-point highcharts-color-3" tabindex="-1" style="outline: none;" role="img" aria-label="Edge, 4.7."></path><path fill="#24DCD4" d="M 215.18477127391856 84.54271283852762 A 3 3 0 0 1 214.5461170023629 80.27901992707598 A 95 95 0 0 1 226.50568399685955 67.33549805387898 A 3 3 0 0 1 230.80647468250194 67.63575794136118 L 290 138 A 0 0 0 0 1 290 138 A 0 0 0 0 0 290 138 A 0 0 0 0 1 290 138 Z" transform="translate(0,0)" stroke="#ffffff" stroke-width="0" opacity="1" stroke-linejoin="round" class="highcharts-point highcharts-color-4" tabindex="-1" style="outline: none;" role="img" aria-label="Safari, 4.2."></path><path fill="#EC64A5" d="M 230.80647468250194 67.63575794136118 A 3 3 0 0 1 231.24681806482926 63.34704552067129 A 95 95 0 0 1 233.72438146079134 61.46206980830044 A 3 3 0 0 1 237.97515788185405 62.1816921675115 L 290 138 A 0 0 0 0 1 290 138 A 0 0 0 0 0 290 138 A 0 0 0 0 1 290 138 Z" transform="translate(0,0)" stroke="#ffffff" stroke-width="0" opacity="1" stroke-linejoin="round" class="highcharts-point highcharts-color-5" tabindex="-1" style="outline: none;" role="img" aria-label="Sogou Explorer, 1.6."></path><path fill="#685CB0" d="M 237.97515788185405 62.1816921675115 A 3 3 0 0 1 238.83300981695072 57.95664227677766 A 95 95 0 0 1 265.48523538741455 46.2175053946041 A 3 3 0 0 1 269.18148307163415 48.43667406296623 L 290 138 A 0 0 0 0 1 290 138 A 0 0 0 0 0 290 138 A 0 0 0 0 1 290 138 Z" transform="translate(0,0)" stroke="#ffffff" stroke-width="0" opacity="1" stroke-linejoin="round" class="highcharts-point highcharts-color-6" tabindex="-1" style="outline: none;" role="img" aria-label="Opera, 6.2."></path><path fill="#FF7D42" d="M 269.18148307163415 48.43667406296623 A 3 3 0 0 1 271.5200013909604 44.814756257174 A 95 95 0 0 1 272.1513816976839 44.69176443261706 A 3 3 0 0 1 275.67841071618636 47.17108345694223 L 290 138 A 0 0 0 0 1 290 138 A 0 0 0 0 0 290 138 A 0 0 0 0 1 290 138 Z" transform="translate(0,0)" stroke="#ffffff" stroke-width="0" opacity="1" stroke-linejoin="round" class="highcharts-point highcharts-color-7" tabindex="-1" style="outline: none;" role="img" aria-label="QQ, 1.2."></path><path fill="#336190" d="M 275.67841071618636 47.17108345694223 A 3 3 0 0 1 278.27142304226624 43.72677748932884 A 95 95 0 0 1 286.8652406636487 43.05173364456222 A 3 3 0 0 1 289.9642328367854 46.048933009398766 L 290 138 A 0 0 0 0 1 290 138 A 0 0 0 0 0 290 138 A 0 0 0 0 1 290 138 Z" transform="translate(0,0)" stroke="#ffffff" stroke-width="0" opacity="1" stroke-linejoin="round" class="highcharts-point highcharts-color-8" tabindex="-1" style="outline: none;" role="img" aria-label="Others, 2.6."></path></g><g class="highcharts-markers highcharts-series-0 highcharts-pie-series" data-z-index="0.1" opacity="1" transform="translate(10,56) scale(1 1)" clip-path="none" aria-hidden="true"></g></g><text x="300" class="highcharts-title" data-z-index="4" style="font-size: 26px; font-weight: normal; fill: #FFFFFF;" text-align="center" y="32" text-anchor="middle" transform-origin="218.26000000000002 31" transform="translate(0,0) scale(1 1)" aria-hidden="true">Browser market shares in January, 2018</text><text x="300" class="highcharts-subtitle" data-z-index="4" style="font-size: 14px; font-weight: normal; fill: #C9C9C9;" text-align="center" y="57" text-anchor="middle" transform-origin="10 17" transform="translate(0,0) scale(1 1)" aria-hidden="true"></text><text x="10" text-anchor="start" class="highcharts-caption" data-z-index="4" style="font-size: 0.8em; fill: #666666;" text-align="left" y="398" transform-origin="10 15.8" transform="translate(0,0) scale(1 1)" aria-hidden="true"></text><g class="highcharts-data-labels highcharts-series-0 highcharts-pie-series highcharts-tracker" data-z-index="6" opacity="1" transform="translate(10,56) scale(1 1)" style="cursor: pointer;" aria-hidden="true"><path fill="none" class="highcharts-data-label-connector highcharts-color-0" stroke-width="1" stroke="#3090F0" d="M 415.35011688438857 171.7764617139512 L 410.3501168843885 171.7764617139512 L 387.24289444258596 165.29138106487258 L 381.4660888321353 163.67011090260291"></path><path fill="none" class="highcharts-data-label-connector highcharts-color-1" stroke-width="1" stroke="#EC6464" d="M 186.86444381074833 215.42359208552796 L 191.86444381074833 215.42359208552796 L 210.70647059908467 200.5582624051066 L 215.41697729616874 196.84192998500126"></path><path fill="none" class="highcharts-data-label-connector highcharts-color-2" stroke-width="1" stroke="#98DF58" d="M 162.5255128608411 163 L 189.00922457085395 136.63498050571144 L 195.00867657654578 136.71607077269888"></path><path fill="none" class="highcharts-data-label-connector highcharts-color-3" stroke-width="1" stroke="#F9DD51" d="M 160 138 L 200.3971251835925 91.3917944495263 L 205.72006824199295 94.16059873965345"></path><path fill="none" class="highcharts-data-label-connector highcharts-color-4" stroke-width="1" stroke="#24DCD4" d="M 162.5255128608411 113 L 215.78711326229288 69.49126010459503 L 220.19579960314675 73.56108623699532"></path><path fill="none" class="highcharts-data-label-connector highcharts-color-5" stroke-width="1" stroke="#EC64A5" d="M 170.435607626104 88 L 228.8324462828401 57.62879637420902 L 232.46616234524564 62.40332332227581"></path><path fill="none" class="highcharts-data-label-connector highcharts-color-6" stroke-width="1" stroke="#685CB0" d="M 185 63 L 249.2709156475789 45.57629260945344 L 251.69046521306927 51.06680988017898"></path><path fill="none" class="highcharts-data-label-connector highcharts-color-7" stroke-width="1" stroke="#FF7D42" d="M 210 38 L 270.4753740356795 38 L 270.6455833046744 38.8717671176183 L 271.7953506331096 44.76057303142315"></path><path fill="none" class="highcharts-data-label-connector highcharts-color-8" stroke-width="1" stroke="#336190" d="M 275.21132674498836 13 L 280.18117416014604 13 L 282.09075200995056 37.3101604121255 L 282.56060832619113 43.29173504110814"></path><g class="highcharts-label highcharts-data-label highcharts-data-label-color-0" data-z-index="1" style="cursor: pointer;" filter="none" transform="translate(420,159)"><text x="5" data-z-index="1" y="17" style="font-family: var(--lumo-font-family); font-size: 12px; font-weight: bold; fill: #949494;"><tspan class="highcharts-text-outline" fill="#000000" stroke="#000000" stroke-width="2px" stroke-linejoin="round">Chrome<tspan x="5" dy="0">​</tspan></tspan>Chrome</text></g><g class="highcharts-label highcharts-data-label highcharts-data-label-color-1" data-z-index="1" style="cursor: pointer;" filter="none" transform="translate(90,203)"><text x="5" data-z-index="1" y="17" style="font-family: var(--lumo-font-family); font-size: 12px; font-weight: bold; fill: #949494;"><tspan class="highcharts-text-outline" fill="#000000" stroke="#000000" stroke-width="2px" stroke-linejoin="round">Internet Explorer<tspan x="5" dy="0">​</tspan></tspan>Internet Explorer</text></g><g class="highcharts-label highcharts-data-label highcharts-data-label-color-2" data-z-index="1" style="cursor: pointer;" filter="none" transform="translate(112,151)"><text x="5" data-z-index="1" y="17" style="font-family: var(--lumo-font-family); font-size: 12px; font-weight: bold; fill: #949494;"><tspan class="highcharts-text-outline" fill="#000000" stroke="#000000" stroke-width="2px" stroke-linejoin="round">Firefox<tspan x="5" dy="0">​</tspan></tspan>Firefox</text></g><g class="highcharts-label highcharts-data-label highcharts-data-label-color-3" data-z-index="1" style="cursor: pointer;" filter="none" transform="translate(120,126)"><text x="5" data-z-index="1" y="17" style="font-family: var(--lumo-font-family); font-size: 12px; font-weight: bold; fill: #949494;"><tspan class="highcharts-text-outline" fill="#000000" stroke="#000000" stroke-width="2px" stroke-linejoin="round">Edge<tspan x="5" dy="0">​</tspan></tspan>Edge</text></g><g class="highcharts-label highcharts-data-label highcharts-data-label-color-4" data-z-index="1" style="cursor: pointer;" filter="none" transform="translate(119,101)"><text x="5" data-z-index="1" y="17" style="font-family: var(--lumo-font-family); font-size: 12px; font-weight: bold; fill: #949494;"><tspan class="highcharts-text-outline" fill="#000000" stroke="#000000" stroke-width="2px" stroke-linejoin="round">Safari<tspan x="5" dy="0">​</tspan></tspan>Safari</text></g><g class="highcharts-label highcharts-data-label highcharts-data-label-color-5" data-z-index="1" style="cursor: pointer;" filter="none" transform="translate(80,76)"><text x="5" data-z-index="1" y="17" style="font-family: var(--lumo-font-family); font-size: 12px; font-weight: bold; fill: #949494;"><tspan class="highcharts-text-outline" fill="#000000" stroke="#000000" stroke-width="2px" stroke-linejoin="round">Sogou Explorer<tspan x="5" dy="0">​</tspan></tspan>Sogou Explorer</text></g><g class="highcharts-label highcharts-data-label highcharts-data-label-color-6" data-z-index="1" style="cursor: pointer;" filter="none" transform="translate(141,51)"><text x="5" data-z-index="1" y="17" style="font-family: var(--lumo-font-family); font-size: 12px; font-weight: bold; fill: #949494;"><tspan class="highcharts-text-outline" fill="#000000" stroke="#000000" stroke-width="2px" stroke-linejoin="round">Opera<tspan x="5" dy="0">​</tspan></tspan>Opera</text></g><g class="highcharts-label highcharts-data-label highcharts-data-label-color-7" data-z-index="1" style="cursor: pointer;" filter="none" transform="translate(178,26)"><text x="5" data-z-index="1" y="17" style="font-family: var(--lumo-font-family); font-size: 12px; font-weight: bold; fill: #949494;"><tspan class="highcharts-text-outline" fill="#000000" stroke="#000000" stroke-width="2px" stroke-linejoin="round">QQ<tspan x="5" dy="0">​</tspan></tspan>QQ</text></g><g class="highcharts-label highcharts-data-label highcharts-data-label-color-8" data-z-index="1" style="cursor: pointer;" filter="none" transform="translate(228,1)"><text x="5" data-z-index="1" y="17" style="font-family: var(--lumo-font-family); font-size: 12px; font-weight: bold; fill: #949494;"><tspan class="highcharts-text-outline" fill="#000000" stroke="#000000" stroke-width="2px" stroke-linejoin="round">Others<tspan x="5" dy="0">​</tspan></tspan>Others</text></g></g><g class="highcharts-legend highcharts-no-tooltip" data-z-index="7" text-align="center" transform="translate(28,311)" aria-hidden="true"><rect fill="rgba(40,40,40,0.90)" class="highcharts-legend-box" rx="5" ry="5" stroke="#363636" stroke-width="0" filter="none" x="0" y="0" width="543" height="74"></rect><g data-z-index="1"><g><g class="highcharts-legend-item highcharts-pie-series highcharts-color-0" data-z-index="1" transform="translate(8,3)"><text x="21" style="cursor: pointer; font-size: 14px; text-decoration: none; font-weight: normal; fill: #9B9B9B;" text-anchor="start" data-z-index="2" y="19">Chrome</text><rect x="1" y="6" rx="7" ry="7" width="14" height="14" fill="#3090F0" class="highcharts-point" data-z-index="3"></rect></g><g class="highcharts-legend-item highcharts-pie-series highcharts-color-1" data-z-index="1" transform="translate(144.76,3)"><text x="21" y="19" style="cursor: pointer; font-size: 14px; text-decoration: none; font-weight: normal; fill: #9B9B9B;" text-anchor="start" data-z-index="2">Internet Explorer</text><rect x="1" y="6" rx="7" ry="7" width="14" height="14" fill="#EC6464" class="highcharts-point" data-z-index="3"></rect></g><g class="highcharts-legend-item highcharts-pie-series highcharts-color-2" data-z-index="1" transform="translate(281.52,3)"><text x="21" y="19" style="cursor: pointer; font-size: 14px; text-decoration: none; font-weight: normal; fill: #9B9B9B;" text-anchor="start" data-z-index="2">Firefox</text><rect x="1" y="6" rx="7" ry="7" width="14" height="14" fill="#98DF58" class="highcharts-point" data-z-index="3"></rect></g><g class="highcharts-legend-item highcharts-pie-series highcharts-color-3" data-z-index="1" transform="translate(418.28,3)"><text x="21" y="19" style="cursor: pointer; font-size: 14px; text-decoration: none; font-weight: normal; fill: #9B9B9B;" text-anchor="start" data-z-index="2">Edge</text><rect x="1" y="6" rx="7" ry="7" width="14" height="14" fill="#F9DD51" class="highcharts-point" data-z-index="3"></rect></g><g class="highcharts-legend-item highcharts-pie-series highcharts-color-4" data-z-index="1" transform="translate(8,24)"><text x="21" y="19" style="cursor: pointer; font-size: 14px; text-decoration: none; font-weight: normal; fill: #9B9B9B;" text-anchor="start" data-z-index="2">Safari</text><rect x="1" y="6" rx="7" ry="7" width="14" height="14" fill="#24DCD4" class="highcharts-point" data-z-index="3"></rect></g><g class="highcharts-legend-item highcharts-pie-series highcharts-color-5" data-z-index="1" transform="translate(144.76,24)"><text x="21" y="19" style="cursor: pointer; font-size: 14px; text-decoration: none; font-weight: normal; fill: #9B9B9B;" text-anchor="start" data-z-index="2">Sogou Explorer</text><rect x="1" y="6" rx="7" ry="7" width="14" height="14" fill="#EC64A5" class="highcharts-point" data-z-index="3"></rect></g><g class="highcharts-legend-item highcharts-pie-series highcharts-color-6" data-z-index="1" transform="translate(281.52,24)"><text x="21" y="19" style="cursor: pointer; font-size: 14px; text-decoration: none; font-weight: normal; fill: #9B9B9B;" text-anchor="start" data-z-index="2">Opera</text><rect x="1" y="6" rx="7" ry="7" width="14" height="14" fill="#685CB0" class="highcharts-point" data-z-index="3"></rect></g><g class="highcharts-legend-item highcharts-pie-series highcharts-color-7" data-z-index="1" transform="translate(418.28,24)"><text x="21" y="19" style="cursor: pointer; font-size: 14px; text-decoration: none; font-weight: normal; fill: #9B9B9B;" text-anchor="start" data-z-index="2">QQ</text><rect x="1" y="6" rx="7" ry="7" width="14" height="14" fill="#FF7D42" class="highcharts-point" data-z-index="3"></rect></g><g class="highcharts-legend-item highcharts-pie-series highcharts-color-8" data-z-index="1" transform="translate(8,45)"><text x="21" y="19" style="cursor: pointer; font-size: 14px; text-decoration: none; font-weight: normal; fill: #9B9B9B;" text-anchor="start" data-z-index="2">Others</text><rect x="1" y="6" rx="7" ry="7" width="14" height="14" fill="#336190" class="highcharts-point" data-z-index="3"></rect></g></g></g></g><g class="highcharts-control-points" data-z-index="99" clip-path="url(#highcharts-hf5g51x-49-)" aria-hidden="true"></g></svg>